# This file uses centimeters as units for non-parametric coordinates.

mtllib play-button.mtl
g default
v -0.862089 0.036427 0.011731
v 0.671896 0.036427 0.011731
v -0.862089 0.576974 0.011731
v 0.671896 0.576974 0.011731
v -0.862089 0.576974 0.001849
v 0.671896 0.576974 0.001849
v -0.862089 0.036427 0.001848
v 0.671896 0.036428 0.001849
vt 0.000000 0.000000
vt 1.000000 0.000000
vt 0.000000 1.000000
vt 1.000000 1.000000
vt 0.000000 2.000000
vt 1.000000 2.000000
vt 0.000000 3.000000
vt 1.000000 3.000000
vt 0.000000 4.000000
vt 1.000000 4.000000
vt 2.000000 0.000000
vt 2.000000 1.000000
vt -1.000000 0.000000
vt -1.000000 1.000000
vn 0.000000 0.000000 1.000000
vn 0.000000 0.000000 1.000000
vn 0.000000 0.000000 1.000000
vn 0.000000 0.000000 1.000000
vn -0.000000 1.000000 -0.000018
vn -0.000000 1.000000 -0.000018
vn -0.000000 1.000000 -0.000018
vn -0.000000 1.000000 -0.000018
vn 0.000000 0.000000 -1.000000
vn 0.000000 0.000000 -1.000000
vn 0.000000 0.000000 -1.000000
vn 0.000000 0.000000 -1.000000
vn 0.000000 -1.000000 -0.000013
vn 0.000000 -1.000000 -0.000013
vn 0.000000 -1.000000 -0.000013
vn 0.000000 -1.000000 -0.000013
vn 1.000000 -0.000001 0.000009
vn 1.000000 -0.000001 0.000009
vn 1.000000 -0.000001 0.000009
vn 1.000000 -0.000001 0.000009
vn -1.000000 0.000001 0.000014
vn -1.000000 0.000001 0.000014
vn -1.000000 0.000001 0.000014
vn -1.000000 0.000001 0.000014
s off
g pCube1
usemtl lambert3SG
f 1/1/1 2/2/2 4/4/3 3/3/4
usemtl lambert2SG
f 3/3/5 4/4/6 6/6/7 5/5/8
f 5/5/9 6/6/10 8/8/11 7/7/12
f 7/7/13 8/8/14 2/10/15 1/9/16
f 2/2/17 8/11/18 6/12/19 4/4/20
f 7/13/21 1/1/22 3/3/23 5/14/24
g default
v -0.862089 0.036427 0.011731
v 0.671896 0.036427 0.011731
v -0.862089 0.576974 0.011731
v 0.671896 0.576974 0.011731
v -0.862089 0.576974 0.001849
v 0.671896 0.576974 0.001849
v -0.862089 0.036427 0.001848
v 0.671896 0.036428 0.001849
vt 0.000000 0.000000
vt 1.000000 0.000000
vt 0.000000 1.000000
vt 1.000000 1.000000
vt 0.000000 2.000000
vt 1.000000 2.000000
vt 0.000000 3.000000
vt 1.000000 3.000000
vt 0.000000 4.000000
vt 1.000000 4.000000
vt 2.000000 0.000000
vt 2.000000 1.000000
vt -1.000000 0.000000
vt -1.000000 1.000000
vn 0.000000 0.000000 1.000000
vn 0.000000 0.000000 1.000000
vn 0.000000 0.000000 1.000000
vn 0.000000 0.000000 1.000000
vn -0.000000 1.000000 -0.000018
vn -0.000000 1.000000 -0.000018
vn -0.000000 1.000000 -0.000018
vn -0.000000 1.000000 -0.000018
vn 0.000000 0.000000 -1.000000
vn 0.000000 0.000000 -1.000000
vn 0.000000 0.000000 -1.000000
vn 0.000000 0.000000 -1.000000
vn 0.000000 -1.000000 -0.000013
vn 0.000000 -1.000000 -0.000013
vn 0.000000 -1.000000 -0.000013
vn 0.000000 -1.000000 -0.000013
vn 1.000000 -0.000001 0.000009
vn 1.000000 -0.000001 0.000009
vn 1.000000 -0.000001 0.000009
vn 1.000000 -0.000001 0.000009
vn -1.000000 0.000001 0.000014
vn -1.000000 0.000001 0.000014
vn -1.000000 0.000001 0.000014
vn -1.000000 0.000001 0.000014
s off
g pasted__pCube1 group1
usemtl pasted__lambert3SG
f 9/15/25 10/16/26 12/18/27 11/17/28
usemtl pasted__lambert2SG
f 11/17/29 12/18/30 14/20/31 13/19/32
f 13/19/33 14/20/34 16/22/35 15/21/36
f 15/21/37 16/22/38 10/24/39 9/23/40
f 10/16/41 16/25/42 14/26/43 12/18/44
f 15/27/45 9/15/46 11/17/47 13/28/48
