# This file uses centimeters as units for non-parametric coordinates.

mtllib settingsButtonPressed.mtl
g default
v -0.734039 0.491540 -0.283284
v 0.721961 0.491540 -0.283284
v -0.734039 0.048540 -0.283284
v 0.721961 0.048540 -0.283284
v -0.604333 0.159278 0.406692
v -0.734039 0.048540 0.322377
v 0.592254 0.159278 0.406692
v 0.721961 0.048540 0.322377
v -0.604333 0.380801 0.406692
v -0.734039 0.491540 0.322377
v 0.592254 0.380801 0.406692
v 0.721961 0.491540 0.322377
vt 0.000000 2.000000
vt 1.000000 2.000000
vt 1.000000 3.000000
vt 0.000000 3.000000
vt 0.089084 0.249975
vt -0.110629 0.000000
vt 1.110629 0.000000
vt 0.910916 0.249975
vt 0.089084 0.750025
vt 0.000000 1.110629
vt 1.110629 1.000000
vt 0.910916 0.750025
vt 0.000000 0.000000
vt 1.000000 0.000000
vt 1.000000 1.000000
vt 0.000000 1.000000
vt 1.000000 1.110629
vt 1.000000 3.889371
vt 0.000000 3.889371
vt 2.000000 0.000000
vt 2.000000 1.000000
vt -1.000000 0.000000
vt -0.110629 1.000000
vt -1.000000 1.000000
vn 0.000000 0.000000 -1.000000
vn 0.000000 0.000000 -1.000000
vn 0.000000 0.000000 -1.000000
vn 0.000000 0.000000 -1.000000
vn 0.000000 -0.605781 0.795632
vn 0.000000 -0.605781 0.795631
vn 0.000000 -0.605781 0.795631
vn 0.000000 -0.605781 0.795631
vn -0.545013 0.000000 0.838428
vn -0.545013 0.000000 0.838428
vn -0.545013 0.000000 0.838428
vn -0.545013 0.000000 0.838428
vn 0.545013 0.000000 0.838428
vn 0.545012 0.000000 0.838428
vn 0.545012 0.000000 0.838428
vn 0.545012 0.000000 0.838428
vn 0.000000 0.605781 0.795632
vn 0.000000 0.605781 0.795632
vn 0.000000 0.605781 0.795632
vn 0.000000 0.605781 0.795632
vn 0.000000 0.000000 1.000000
vn 0.000000 0.000000 1.000000
vn 0.000000 0.000000 1.000000
vn 0.000000 0.000000 1.000000
vn 0.000000 1.000000 0.000000
vn 0.000000 1.000000 0.000000
vn 0.000000 1.000000 0.000000
vn 0.000000 1.000000 0.000000
vn 0.000000 -1.000000 0.000000
vn 0.000000 -1.000000 0.000000
vn 0.000000 -1.000000 0.000000
vn 0.000000 -1.000000 0.000000
vn 1.000000 0.000000 0.000000
vn 1.000000 0.000000 0.000000
vn 1.000000 0.000000 0.000000
vn 1.000000 0.000000 0.000000
vn -1.000000 0.000000 0.000000
vn -1.000000 0.000000 0.000000
vn -1.000000 0.000000 0.000000
vn -1.000000 0.000000 0.000000
s off
g ExitButton:pCube2
usemtl Settingsbutton6
f 1/1/1 2/2/2 4/3/3 3/4/4
f 5/5/5 6/6/6 8/7/7 7/8/8
f 6/6/9 5/5/10 9/9/11 10/10/12
f 7/8/13 8/7/14 12/11/15 11/12/16
f 10/10/17 9/9/18 11/12/19 12/11/20
usemtl Settingsbutton2
f 5/13/21 7/14/22 11/15/23 9/16/24
usemtl Settingsbutton6
f 10/10/25 12/17/26 2/2/27 1/1/28
f 3/4/29 4/3/30 8/18/31 6/19/32
f 8/7/33 4/20/34 2/21/35 12/11/36
f 3/22/37 6/6/38 10/23/39 1/24/40
